<svg width="16" height="16" viewBox="0 0 16 16" fill="none" xmlns="http://www.w3.org/2000/svg">
<path d="M6.44444 14.5195H9.55556M13.4444 14.5195V2.07509C13.4444 1.66253 13.2806 1.26687 12.9888 0.975143C12.6971 0.68342 12.3014 0.519531 11.8889 0.519531H4.11111C3.69855 0.519531 3.30289 0.68342 3.01117 0.975143C2.71944 1.26687 2.55556 1.66253 2.55556 2.07509V14.5195H13.4444ZM13.4444 14.5195H15H13.4444ZM13.4444 14.5195H9.55556H13.4444ZM2.55556 14.5195H1H2.55556ZM2.55556 14.5195H6.44444H2.55556ZM5.66667 3.63064H6.44444H5.66667ZM5.66667 6.74175H6.44444H5.66667ZM9.55556 3.63064H10.3333H9.55556ZM9.55556 6.74175H10.3333H9.55556ZM6.44444 14.5195V10.6306C6.44444 10.4244 6.52639 10.2265 6.67225 10.0807C6.81811 9.93481 7.01594 9.85286 7.22222 9.85286H8.77778C8.98406 9.85286 9.18189 9.93481 9.32775 10.0807C9.47361 10.2265 9.55556 10.4244 9.55556 10.6306V14.5195H6.44444Z" stroke="#828282" stroke-linecap="round" stroke-linejoin="round"/>
</svg>
