<svg width="16" height="15" viewBox="0 0 16 15" fill="none" xmlns="http://www.w3.org/2000/svg">
<path d="M14.6665 10.7995V12.7995C14.6673 12.9852 14.6292 13.169 14.5549 13.3391C14.4805 13.5092 14.3714 13.6619 14.2346 13.7874C14.0978 13.9129 13.9362 14.0085 13.7604 14.068C13.5845 14.1275 13.3981 14.1496 13.2132 14.1328C11.1617 13.9099 9.19119 13.2089 7.45986 12.0862C5.84908 11.0626 4.48342 9.69696 3.45986 8.08618C2.33318 6.34698 1.63202 4.36684 1.41319 2.30618C1.39653 2.12183 1.41844 1.93602 1.47753 1.7606C1.53661 1.58517 1.63157 1.42397 1.75637 1.28726C1.88117 1.15055 2.03306 1.04132 2.20239 0.966529C2.37171 0.891738 2.55475 0.853022 2.73986 0.852848H4.73986C5.0634 0.849664 5.37705 0.964234 5.62237 1.1752C5.86768 1.38617 6.02791 1.67915 6.07319 1.99951C6.15761 2.63956 6.31416 3.268 6.53986 3.87285C6.62956 4.11146 6.64897 4.37079 6.5958 4.6201C6.54263 4.86941 6.4191 5.09826 6.23986 5.27951L5.39319 6.12618C6.34223 7.79521 7.72416 9.17714 9.39319 10.1262L10.2399 9.27952C10.4211 9.10027 10.65 8.97675 10.8993 8.92358C11.1486 8.87041 11.4079 8.88982 11.6465 8.97951C12.2514 9.20522 12.8798 9.36177 13.5199 9.44618C13.8437 9.49187 14.1395 9.65499 14.3509 9.90451C14.5623 10.154 14.6746 10.4726 14.6665 10.7995Z" stroke="#828282" stroke-linecap="round" stroke-linejoin="round"/>
</svg>
