<svg width="13" height="16" viewBox="0 0 13 16" fill="none" xmlns="http://www.w3.org/2000/svg">
<path d="M12.8182 8.5381C12.8191 8.13529 12.7068 7.74032 12.4943 7.39811C12.2818 7.0559 11.9776 6.78018 11.6162 6.60229C11.2548 6.4244 10.8507 6.35149 10.4499 6.39183C10.0491 6.43218 9.66768 6.58417 9.34897 6.83052C9.03027 7.07687 8.78708 7.4077 8.64705 7.78539C8.50702 8.16309 8.47577 8.5725 8.55685 8.96707C8.63794 9.36164 8.8281 9.72555 9.10573 10.0174C9.38336 10.3093 9.7373 10.5174 10.1273 10.6181V11.229C10.1273 11.9446 9.84306 12.6309 9.33705 13.1369C8.83104 13.6429 8.14475 13.9272 7.42915 13.9272C6.71355 13.9272 6.02725 13.6429 5.52125 13.1369C5.01524 12.6309 4.73097 11.9446 4.73097 11.229C4.75802 10.5866 4.91505 9.95636 5.19255 9.37635C5.47006 8.79634 5.86228 8.27862 6.34551 7.85447H6.27278C6.78709 7.51894 7.21121 7.06234 7.50792 6.5247C7.80464 5.98707 7.96488 5.38483 7.9746 4.77083V2.60356C7.9746 2.17535 7.8045 1.76469 7.50171 1.4619C7.19893 1.15912 6.78826 0.989014 6.36006 0.989014H5.54551C5.40278 0.989014 5.26589 1.04571 5.16496 1.14664C5.06403 1.24757 5.00733 1.38446 5.00733 1.5272C5.00733 1.66993 5.06403 1.80682 5.16496 1.90775C5.26589 2.00868 5.40278 2.06538 5.54551 2.06538H6.34551C6.48825 2.06538 6.62513 2.12208 6.72606 2.22301C6.82699 2.32394 6.88369 2.46082 6.88369 2.60356V4.77083C6.8837 5.48199 6.6022 6.16424 6.10069 6.66847C5.59919 7.17269 4.91848 7.4579 4.20733 7.46174V7.85447V7.46174C3.85395 7.46366 3.50366 7.39595 3.17645 7.26248C2.84924 7.12902 2.55152 6.93241 2.3003 6.68389C2.04907 6.43536 1.84926 6.13979 1.71226 5.81404C1.57527 5.48829 1.50378 5.13875 1.50188 4.78538V2.60356C1.50188 2.46082 1.55858 2.32394 1.65951 2.22301C1.76043 2.12208 1.89732 2.06538 2.04006 2.06538H2.79642C2.93916 2.06538 3.07604 2.00868 3.17697 1.90775C3.2779 1.80682 3.3346 1.66993 3.3346 1.5272C3.3346 1.38446 3.2779 1.24757 3.17697 1.14664C3.07604 1.04571 2.93916 0.989014 2.79642 0.989014H2.04006C1.61691 0.996639 1.21368 1.1701 0.917161 1.47207C0.620638 1.77403 0.454534 2.18035 0.454603 2.60356V4.77083C0.453031 5.37572 0.597703 5.97202 0.876292 6.50894C1.15488 7.04586 1.55913 7.50748 2.0546 7.85447C2.53518 8.2799 2.92469 8.79819 3.19966 9.37813C3.47464 9.95808 3.62939 10.5877 3.6546 11.229C3.6546 11.7247 3.75223 12.2155 3.94192 12.6735C4.13161 13.1314 4.40964 13.5475 4.76014 13.898C5.11064 14.2485 5.52674 14.5265 5.98469 14.7162C6.44264 14.9059 6.93347 15.0036 7.42915 15.0036C7.92483 15.0036 8.41566 14.9059 8.8736 14.7162C9.33155 14.5265 9.74766 14.2485 10.0982 13.898C10.4487 13.5475 10.7267 13.1314 10.9164 12.6735C11.1061 12.2155 11.2037 11.7247 11.2037 11.229V10.6181C11.6651 10.499 12.0739 10.2301 12.3661 9.85373C12.6582 9.47732 12.8173 9.01461 12.8182 8.5381ZM10.6364 9.61447C10.4235 9.61447 10.2154 9.55134 10.0384 9.43307C9.86142 9.3148 9.72346 9.14669 9.64199 8.95001C9.56052 8.75333 9.53921 8.53691 9.58074 8.32812C9.62227 8.11932 9.72478 7.92753 9.87532 7.777C10.0258 7.62647 10.2176 7.52395 10.4264 7.48242C10.6352 7.44089 10.8516 7.46221 11.0483 7.54367C11.245 7.62514 11.4131 7.7631 11.5314 7.94011C11.6497 8.11712 11.7128 8.32522 11.7128 8.5381C11.7128 8.67945 11.6849 8.81942 11.6309 8.95001C11.5768 9.0806 11.4975 9.19926 11.3975 9.29921C11.2976 9.39916 11.1789 9.47844 11.0483 9.53253C10.9177 9.58663 10.7778 9.61447 10.6364 9.61447Z" fill="#BDBDBD"/>
</svg>
